<?xml version="1.0" standalone="no"?>
<!DOCTYPE svg PUBLIC "-//W3C//DTD SVG 20010904//EN"
 "http://www.w3.org/TR/2001/REC-SVG-20010904/DTD/svg10.dtd">
<svg version="1.0" xmlns="http://www.w3.org/2000/svg"
 width="700.000000pt" height="700.000000pt" viewBox="0 0 700.000000 700.000000"
 preserveAspectRatio="xMidYMid meet">
<metadata>
Created by potrace 1.11, written by Peter Selinger 2001-2013
</metadata>
<g transform="translate(0.000000,700.000000) scale(0.100000,-0.100000)"
fill="#000000" stroke="none">
<path d="M3215 6989 c-714 -65 -1352 -319 -1900 -755 -142 -114 -371 -338
-494 -484 -450 -536 -725 -1181 -803 -1885 -17 -154 -17 -585 0 -730 83 -700
332 -1300 765 -1840 104 -130 384 -409 512 -511 547 -437 1139 -683 1840 -766
144 -17 586 -17 730 0 847 100 1571 455 2150 1053 546 564 872 1258 967 2064
17 144 17 586 0 730 -83 698 -332 1298 -760 1835 -108 134 -335 364 -478 484
-525 440 -1141 706 -1834 792 -142 18 -559 26 -695 13z m-93 -1770 c174 -67
242 -142 378 -410 l100 -198 -274 -548 -274 -548 -426 854 c-235 469 -425 860
-422 868 5 12 68 14 428 11 l423 -3 67 -26z m2025 14 c7 -19 -1490 -3021
-1553 -3115 -85 -125 -202 -225 -339 -289 -146 -68 -169 -72 -558 -76 -298 -4
-348 -3 -353 10 -6 17 1510 3054 1566 3137 108 159 305 290 497 330 75 16 136
19 411 19 292 1 323 -1 329 -16z"/>
</g>
</svg>
