<?xml version="1.0" encoding="UTF-8" standalone="no"?><!-- Generator: Gravit.io --><svg xmlns="http://www.w3.org/2000/svg" xmlns:xlink="http://www.w3.org/1999/xlink" style="isolation:isolate" viewBox="0 0 1000 1000" width="1000pt" height="1000pt"><g><path d="M 500 0 L 500 0 C 775.958 0 1000 224.042 1000 500 L 1000 500 C 1000 775.958 775.958 1000 500 1000 L 500 1000 C 224.042 1000 0 775.958 0 500 L 0 500 C 0 224.042 224.042 0 500 0 Z" style="stroke:none;fill:#2196F3;stroke-miterlimit:10;"/><path d=" M 435.881 497.683 L 314.866 255.653 C 314.26 254.443 314.325 253.005 315.036 251.853 C 315.748 250.701 317.006 250 318.359 250 C 335.295 250 382.927 250 420.005 250 C 449.596 250 476.648 266.719 489.882 293.186 L 514.228 341.878 C 488.17 393.842 462 445.75 435.881 497.683 L 435.881 497.683 Z " fill-rule="evenodd" fill="rgb(255,255,255)"/><path d=" M 735.455 255.653 C 736.06 254.443 735.995 253.005 735.283 251.853 C 734.572 250.701 733.315 250 731.961 250 C 718.548 250 685.884 250 654.457 250 C 610.069 250 569.492 275.079 549.642 314.78 C 487.491 439.081 355.78 702.503 334.857 744.347 C 334.253 745.557 334.317 746.995 335.029 748.147 C 335.741 749.299 336.998 750 338.352 750 C 351.765 750 384.428 750 415.856 750 C 460.243 750 500.82 724.921 520.671 685.22 C 582.821 560.919 714.532 297.497 735.455 255.653 L 735.455 255.653 Z " fill-rule="evenodd" fill="rgb(255,255,255)"/></g></svg>