<svg width="1000" height="1000" viewBox="0 0 1000 1000" fill="none" xmlns="http://www.w3.org/2000/svg">
<path d="M0 500C0 223.858 223.858 0 500 0V0C776.142 0 1000 223.858 1000 500V500C1000 776.142 776.142 1000 500 1000V1000C223.858 1000 0 776.142 0 500V500Z" fill="url(#paint0_linear_11_119)"/>
<path fill-rule="evenodd" clip-rule="evenodd" d="M435.881 497.683L314.866 255.653C314.26 254.443 314.325 253.005 315.036 251.853C315.748 250.701 317.006 250 318.359 250C335.295 250 382.927 250 420.005 250C449.596 250 476.648 266.719 489.882 293.186L514.228 341.878C488.17 393.842 462 445.75 435.881 497.683Z" fill="white"/>
<path fill-rule="evenodd" clip-rule="evenodd" d="M735.455 255.653C736.06 254.443 735.995 253.005 735.283 251.853C734.572 250.701 733.315 250 731.961 250C718.548 250 685.884 250 654.457 250C610.069 250 569.492 275.079 549.642 314.78C487.491 439.081 355.78 702.503 334.857 744.347C334.253 745.557 334.317 746.995 335.029 748.147C335.741 749.299 336.998 750 338.352 750C351.765 750 384.428 750 415.855 750C460.243 750 500.82 724.921 520.671 685.22C582.821 560.919 714.532 297.497 735.455 255.653Z" fill="white"/>
<defs>
<linearGradient id="paint0_linear_11_119" x1="0" y1="1000" x2="1000" y2="0" gradientUnits="userSpaceOnUse">
<stop stop-color="#2521F3"/>
<stop offset="1" stop-color="#2196F3"/>
</linearGradient>
</defs>
</svg>
